<svg id="visual" viewBox="0 0 1800 1200" width="1800" height="1200" xmlns="http://www.w3.org/2000/svg" xmlns:xlink="http://www.w3.org/1999/xlink" version="1.1"><rect x="0" y="0" width="1800" height="1200" fill="#FA9884"></rect><defs><linearGradient id="grad1_0" x1="33.3%" y1="100%" x2="100%" y2="0%"><stop offset="20%" stop-color="#fa9884" stop-opacity="1"></stop><stop offset="80%" stop-color="#fa9884" stop-opacity="1"></stop></linearGradient></defs><defs><linearGradient id="grad2_0" x1="0%" y1="100%" x2="66.7%" y2="0%"><stop offset="20%" stop-color="#fa9884" stop-opacity="1"></stop><stop offset="80%" stop-color="#fa9884" stop-opacity="1"></stop></linearGradient></defs><g transform="translate(1800, 1200)"><path d="M-973.5 0C-951.3 -175.9 -929.1 -351.8 -843.1 -486.7C-757 -621.7 -607.2 -715.5 -456 -789.8C-304.8 -864.1 -152.4 -918.8 0 -973.5L0 0Z" fill="#E74646"></path></g><g transform="translate(0, 0)"><path d="M973.5 0C864.3 121 755.1 241.9 687.6 397C620.1 552.1 594.4 741.3 486.7 843.1C379.1 944.8 189.5 959.2 0 973.5L0 0Z" fill="#E74646"></path></g></svg>